PathFileType	4	(X/Y/Z)	trajectory.trc
DataRate	CameraRate	NumFrames	NumMarkers	Units	OrigDataRate	OrigDataStartFrame	OrigNumFrames
50	50	171	2	m	50	301	10
Frame#	Time	mbladej			mend		
		X1	Y1	Z1	X2	Y2	Z2

300	6.0	3.8000	-0.0100	0.0000	4.0250	-0.0100	0.0000
301	6.02	3.8815	-0.0100	0.0000	4.1065	-0.0100	0.0000
302	6.04	3.9630	-0.0100	0.0000	4.1880	-0.0100	0.0000
303	6.06	4.0444	-0.0100	0.0000	4.2694	-0.0100	0.0000
304	6.08	4.1259	-0.0100	0.0000	4.3509	-0.0100	0.0000
305	6.1	4.2074	-0.0100	0.0000	4.4324	-0.0100	0.0000
306	6.12	4.2889	-0.0100	0.0000	4.5139	-0.0100	0.0000
307	6.14	4.3704	-0.0100	0.0000	4.5954	-0.0100	0.0000
308	6.16	4.4519	-0.0100	0.0000	4.6769	-0.0100	0.0000
309	6.18	4.5333	-0.0100	0.0000	4.7583	-0.0100	0.0000
310	6.2	4.6148	-0.0100	0.0000	4.8398	-0.0100	0.0000
311	6.22	4.6963	-0.0100	0.0000	4.9213	-0.0100	0.0000
312	6.24	4.7778	-0.0100	0.0000	5.0028	-0.0100	0.0000
313	6.26	4.8593	-0.0100	0.0000	5.0843	-0.0100	0.0000
314	6.28	4.9407	-0.0100	0.0000	5.1657	-0.0100	0.0000
315	6.3	5.0222	-0.0100	0.0000	5.2472	-0.0100	0.0000
316	6.32	5.1037	-0.0100	0.0000	5.3287	-0.0100	0.0000
317	6.34	5.1852	-0.0100	0.0000	5.4102	-0.0100	0.0000
318	6.36	5.2667	-0.0100	0.0000	5.4917	-0.0100	0.0000
319	6.38	5.3481	-0.0100	0.0000	5.5731	-0.0100	0.0000
320	6.4	5.4296	-0.0100	0.0000	5.6546	-0.0100	0.0000
321	6.42	5.5111	-0.0100	0.0000	5.7361	-0.0100	0.0000
322	6.44	5.5926	-0.0100	0.0000	5.8176	-0.0100	0.0000
323	6.46	5.6741	-0.0100	0.0000	5.8991	-0.0100	0.0000
324	6.48	5.7556	-0.0100	0.0000	5.9806	-0.0100	0.0000
325	6.5	5.8370	-0.0100	0.0000	6.0620	-0.0100	0.0000
326	6.52	5.9185	-0.0100	0.0000	6.1435	-0.0100	0.0000
327	6.54	6.0000	-0.0100	0.0000	6.2250	-0.0100	0.0000
328	6.56	6.0100	0.0417	0.0000	6.2350	0.0417	0.0000
329	6.58	6.0200	0.0933	0.0000	6.2450	0.0933	0.0000
330	6.6	6.0300	0.1450	0.0000	6.2550	0.1450	0.0000
331	6.62	6.0300	0.1967	0.0000	6.2550	0.1967	0.0000
332	6.64	6.0200	0.2483	0.0000	6.2450	0.2483	0.0000
333	6.66	6.0100	0.3000	0.0000	6.2350	0.3000	0.0000
334	6.68	6.0000	0.3000	0.0000	6.2250	0.3000	0.0000
335	6.7	5.9633	0.3000	0.0000	6.1883	0.3000	0.0000
336	6.72	5.9267	0.3000	0.0000	6.1517	0.3000	0.0000
337	6.74	5.8900	0.3000	0.0000	6.1150	0.3000	0.0000
338	6.76	5.8533	0.3000	0.0000	6.0783	0.3000	0.0000
339	6.78	5.8167	0.3000	0.0000	6.0417	0.3000	0.0000
340	6.8	5.7800	0.3000	0.0000	6.0050	0.3000	0.0000
341	6.82	5.7433	0.3000	0.0000	5.9683	0.3000	0.0000
342	6.84	5.7067	0.3000	0.0000	5.9317	0.3000	0.0000
343	6.86	5.6700	0.3000	0.0000	5.8950	0.3000	0.0000
344	6.88	5.6333	0.3000	0.0000	5.8583	0.3000	0.0000
345	6.9	5.5967	0.3000	0.0000	5.8217	0.3000	0.0000
346	6.92	5.5600	0.3000	0.0000	5.7850	0.3000	0.0000
347	6.94	5.5233	0.3000	0.0000	5.7483	0.3000	0.0000
348	6.96	5.4867	0.3000	0.0000	5.7117	0.3000	0.0000
349	6.98	5.4500	0.3000	0.0000	5.6750	0.3000	0.0000
350	7.0	5.4133	0.3000	0.0000	5.6383	0.3000	0.0000
351	7.02	5.3767	0.3000	0.0000	5.6017	0.3000	0.0000
352	7.04	5.3400	0.3000	0.0000	5.5650	0.3000	0.0000
353	7.06	5.3033	0.3000	0.0000	5.5283	0.3000	0.0000
354	7.08	5.2667	0.3000	0.0000	5.4917	0.3000	0.0000
355	7.1	5.2300	0.3000	0.0000	5.4550	0.3000	0.0000
356	7.12	5.1933	0.3000	0.0000	5.4183	0.3000	0.0000
357	7.14	5.1567	0.3000	0.0000	5.3817	0.3000	0.0000
358	7.16	5.1200	0.3000	0.0000	5.3450	0.3000	0.0000
359	7.18	5.0833	0.3000	0.0000	5.3083	0.3000	0.0000
360	7.2	5.0467	0.3000	0.0000	5.2717	0.3000	0.0000
361	7.22	5.0100	0.3000	0.0000	5.2350	0.3000	0.0000
362	7.24	4.9733	0.3000	0.0000	5.1983	0.3000	0.0000
363	7.26	4.9367	0.3000	0.0000	5.1617	0.3000	0.0000
364	7.28	4.9000	0.3000	0.0000	5.1250	0.3000	0.0000
365	7.3	4.8633	0.3000	0.0000	5.0883	0.3000	0.0000
366	7.32	4.8267	0.3000	0.0000	5.0517	0.3000	0.0000
367	7.34	4.7900	0.3000	0.0000	5.0150	0.3000	0.0000
368	7.36	4.7533	0.3000	0.0000	4.9783	0.3000	0.0000
369	7.38	4.7167	0.3000	0.0000	4.9417	0.3000	0.0000
370	7.4	4.6800	0.3000	0.0000	4.9050	0.3000	0.0000
371	7.42	4.6433	0.3000	0.0000	4.8683	0.3000	0.0000
372	7.44	4.6067	0.3000	0.0000	4.8317	0.3000	0.0000
373	7.46	4.5700	0.3000	0.0000	4.7950	0.3000	0.0000
374	7.48	4.5333	0.3000	0.0000	4.7583	0.3000	0.0000
375	7.5	4.4967	0.3000	0.0000	4.7217	0.3000	0.0000
376	7.52	4.4600	0.3000	0.0000	4.6850	0.3000	0.0000
377	7.54	4.4233	0.3000	0.0000	4.6483	0.3000	0.0000
378	7.56	4.3867	0.3000	0.0000	4.6117	0.3000	0.0000
379	7.58	4.3500	0.3000	0.0000	4.5750	0.3000	0.0000
380	7.6	4.3133	0.3000	0.0000	4.5383	0.3000	0.0000
381	7.62	4.2767	0.3000	0.0000	4.5017	0.3000	0.0000
382	7.64	4.2400	0.3000	0.0000	4.4650	0.3000	0.0000
383	7.66	4.2033	0.3000	0.0000	4.4283	0.3000	0.0000
384	7.68	4.1667	0.3000	0.0000	4.3917	0.3000	0.0000
385	7.7	4.1300	0.3000	0.0000	4.3550	0.3000	0.0000
386	7.72	4.0933	0.3000	0.0000	4.3183	0.3000	0.0000
387	7.74	4.0567	0.3000	0.0000	4.2817	0.3000	0.0000
388	7.76	4.0200	0.3000	0.0000	4.2450	0.3000	0.0000
389	7.78	3.9833	0.3000	0.0000	4.2083	0.3000	0.0000
390	7.8	3.9467	0.3000	0.0000	4.1717	0.3000	0.0000
391	7.82	3.9100	0.3000	0.0000	4.1350	0.3000	0.0000
392	7.84	3.8733	0.3000	0.0000	4.0983	0.3000	0.0000
393	7.86	3.8367	0.3000	0.0000	4.0617	0.3000	0.0000
394	7.88	3.7900	0.2483	0.0000	4.0150	0.2483	0.0000
395	7.9	3.7800	0.1967	0.0000	4.0050	0.1967	0.0000
396	7.92	3.7700	0.1450	0.0000	3.9950	0.1450	0.0000
397	7.94	3.7700	0.0933	0.0000	3.9950	0.0933	0.0000
398	7.96	3.7800	0.0417	0.0000	4.0050	0.0417	0.0000
399	7.98	3.7900	-0.0100	0.0000	4.0150	-0.0100	0.0000
400	8.0	3.8000	-0.0100	0.0000	4.0250	-0.0100	0.0000
401	8.02	3.8815	-0.0100	0.0000	4.1065	-0.0100	0.0000
402	8.04	3.9630	-0.0100	0.0000	4.1880	-0.0100	0.0000
403	8.06	4.0444	-0.0100	0.0000	4.2694	-0.0100	0.0000
404	8.08	4.1259	-0.0100	0.0000	4.3509	-0.0100	0.0000
405	8.1	4.2074	-0.0100	0.0000	4.4324	-0.0100	0.0000
406	8.12	4.2889	-0.0100	0.0000	4.5139	-0.0100	0.0000
407	8.14	4.3704	-0.0100	0.0000	4.5954	-0.0100	0.0000
408	8.16	4.4519	-0.0100	0.0000	4.6769	-0.0100	0.0000
409	8.18	4.5333	-0.0100	0.0000	4.7583	-0.0100	0.0000
410	8.2	4.6148	-0.0100	0.0000	4.8398	-0.0100	0.0000
411	8.22	4.6963	-0.0100	0.0000	4.9213	-0.0100	0.0000
412	8.24	4.7778	-0.0100	0.0000	5.0028	-0.0100	0.0000
413	8.26	4.8593	-0.0100	0.0000	5.0843	-0.0100	0.0000
414	8.28	4.9407	-0.0100	0.0000	5.1657	-0.0100	0.0000
415	8.3	5.0222	-0.0100	0.0000	5.2472	-0.0100	0.0000
416	8.32	5.1037	-0.0100	0.0000	5.3287	-0.0100	0.0000
417	8.34	5.1852	-0.0100	0.0000	5.4102	-0.0100	0.0000
418	8.36	5.2667	-0.0100	0.0000	5.4917	-0.0100	0.0000
419	8.38	5.3481	-0.0100	0.0000	5.5731	-0.0100	0.0000
420	8.4	5.4296	-0.0100	0.0000	5.6546	-0.0100	0.0000
421	8.42	5.5111	-0.0100	0.0000	5.7361	-0.0100	0.0000
422	8.44	5.5926	-0.0100	0.0000	5.8176	-0.0100	0.0000
423	8.46	5.6741	-0.0100	0.0000	5.8991	-0.0100	0.0000
424	8.48	5.7556	-0.0100	0.0000	5.9806	-0.0100	0.0000
425	8.5	5.8370	-0.0100	0.0000	6.0620	-0.0100	0.0000
426	8.52	5.9185	-0.0100	0.0000	6.1435	-0.0100	0.0000
427	8.54	6.0000	-0.0100	0.0000	6.2250	-0.0100	0.0000
428	8.56	6.0100	0.0417	0.0000	6.2350	0.0417	0.0000
429	8.58	6.0200	0.0933	0.0000	6.2450	0.0933	0.0000
430	8.6	6.0300	0.1450	0.0000	6.2550	0.1450	0.0000
431	8.62	6.0300	0.1967	0.0000	6.2550	0.1967	0.0000
432	8.64	6.0200	0.2483	0.0000	6.2450	0.2483	0.0000
433	8.66	6.0100	0.3000	0.0000	6.2350	0.3000	0.0000
434	8.68	6.0000	0.3000	0.0000	6.2250	0.3000	0.0000
435	8.7	5.9633	0.3000	0.0000	6.1883	0.3000	0.0000
436	8.72	5.9267	0.3000	0.0000	6.1517	0.3000	0.0000
437	8.74	5.8900	0.3000	0.0000	6.1150	0.3000	0.0000
438	8.76	5.8533	0.3000	0.0000	6.0783	0.3000	0.0000
439	8.78	5.8167	0.3000	0.0000	6.0417	0.3000	0.0000
440	8.8	5.7800	0.3000	0.0000	6.0050	0.3000	0.0000
441	8.82	5.7433	0.3000	0.0000	5.9683	0.3000	0.0000
442	8.84	5.7067	0.3000	0.0000	5.9317	0.3000	0.0000
443	8.86	5.6700	0.3000	0.0000	5.8950	0.3000	0.0000
444	8.88	5.6333	0.3000	0.0000	5.8583	0.3000	0.0000
445	8.9	5.5967	0.3000	0.0000	5.8217	0.3000	0.0000
446	8.92	5.5600	0.3000	0.0000	5.7850	0.3000	0.0000
447	8.94	5.5233	0.3000	0.0000	5.7483	0.3000	0.0000
448	8.96	5.4867	0.3000	0.0000	5.7117	0.3000	0.0000
449	8.98	5.4500	0.3000	0.0000	5.6750	0.3000	0.0000
450	9.0	5.4133	0.3000	0.0000	5.6383	0.3000	0.0000
451	9.02	5.3767	0.3000	0.0000	5.6017	0.3000	0.0000
452	9.04	5.3400	0.3000	0.0000	5.5650	0.3000	0.0000
453	9.06	5.3033	0.3000	0.0000	5.5283	0.3000	0.0000
454	9.08	5.2667	0.3000	0.0000	5.4917	0.3000	0.0000
455	9.1	5.2300	0.3000	0.0000	5.4550	0.3000	0.0000
456	9.12	5.1933	0.3000	0.0000	5.4183	0.3000	0.0000
457	9.14	5.1567	0.3000	0.0000	5.3817	0.3000	0.0000
458	9.16	5.1200	0.3000	0.0000	5.3450	0.3000	0.0000
459	9.18	5.0833	0.3000	0.0000	5.3083	0.3000	0.0000
460	9.2	5.0467	0.3000	0.0000	5.2717	0.3000	0.0000
461	9.22	5.0100	0.3000	0.0000	5.2350	0.3000	0.0000
462	9.24	4.9733	0.3000	0.0000	5.1983	0.3000	0.0000
463	9.26	4.9367	0.3000	0.0000	5.1617	0.3000	0.0000
464	9.28	4.9000	0.3000	0.0000	5.1250	0.3000	0.0000
465	9.3	4.8633	0.3000	0.0000	5.0883	0.3000	0.0000
466	9.32	4.8267	0.3000	0.0000	5.0517	0.3000	0.0000
467	9.34	4.7900	0.3000	0.0000	5.0150	0.3000	0.0000
468	9.36	4.7533	0.3000	0.0000	4.9783	0.3000	0.0000
469	9.38	4.7167	0.3000	0.0000	4.9417	0.3000	0.0000
470	9.4	4.6800	0.3000	0.0000	4.9050	0.3000	0.0000
